<svg width="32" height="32" viewBox="0 0 32 32" fill="none" xmlns="http://www.w3.org/2000/svg">
<path d="M22 28H20V22C20 19.7909 18.2091 18 16 18C13.7909 18 12 19.7909 12 22V28H10H8C6.34315 28 5 26.6569 5 25V14.7069C5 13.8892 5.33385 13.1068 5.92428 12.541L13.9243 4.8743C15.0847 3.76225 16.9153 3.76225 18.0757 4.8743L26.0757 12.541C26.6662 13.1068 27 13.8892 27 14.7069V25C27 26.6569 25.6569 28 24 28H22ZM14 28V22C14 20.8955 14.8954 20 16 20C17.1046 20 18 20.8955 18 22V28H16H14Z" stroke="currentColor" stroke-width="2"/>
</svg>