<svg width="32" height="32" viewBox="0 0 32 32" fill="none" xmlns="http://www.w3.org/2000/svg">
<path d="M3 24.9809C3 20.6434 7.15158 17.5119 11.3222 18.7035L14.787 19.6934C15.5798 19.92 16.4202 19.92 17.213 19.6934L20.6778 18.7035C24.8484 17.5119 29 20.6434 29 24.9809C29 27.2006 27.2006 29 24.9809 29H7.01908C4.7994 29 3 27.2006 3 24.9809Z" stroke="currentColor" stroke-width="2"/>
<circle cx="16" cy="9" r="6" stroke="currentColor" stroke-width="2"/>
<path d="M15 9C15 9.55228 15.4477 10 16 10C16.5523 10 17 9.55228 17 9C17 8.44772 17.4477 8 18 8C18.5523 8 19 8.44772 19 9C19 10.6569 17.6569 12 16 12C14.3431 12 13 10.6569 13 9C13 8.44772 13.4477 8 14 8C14.5523 8 15 8.44772 15 9Z" fill="currentColor"/>
</svg>